# Blender v2.78 (sub 0) OBJ File: 'socket.blend'
# www.blender.org
mtllib socket2Smooth.mtl
o Cube.003
v -1.682260 -3.289753 2.243014
v -1.682260 -3.289753 -2.243014
v -1.682260 3.880958 -2.243014
v 1.918062 -1.948331 1.233561
v 1.918059 2.514152 1.233709
v 1.918062 -1.948331 -1.233561
v 1.918059 2.514152 -1.233709
v 1.799512 3.880958 -2.243014
v 1.799512 -3.289753 2.243014
v 1.918985 3.589388 -2.046325
v 1.918985 -3.001276 -2.046325
v 1.918985 3.589388 2.046325
v 1.918985 -3.001276 2.046325
v 0.185054 2.324530 -1.152741
v 0.185054 -1.884899 1.152741
v 0.185054 2.382374 -1.185792
v 0.185054 -1.938222 -1.185792
v 0.185054 2.382374 1.185792
v 1.941904 2.451785 -1.197545
v 1.941904 -1.889839 -1.197545
v 1.941904 2.451785 1.197545
v 1.941905 1.493075 0.406571
v 1.941905 -0.410077 0.633786
v 1.941905 1.493075 -0.406571
v 1.941905 -0.410077 -0.633786
v 1.941905 -0.934429 -0.633785
v 1.941905 -0.934429 -0.406571
v 1.941904 -0.410077 -0.406569
v 1.941905 -0.934429 0.633785
v 1.941905 -0.934429 0.406571
v 1.941904 -0.410077 0.406569
v -1.409708 2.017426 0.633786
v -1.409708 1.493075 0.633785
v -1.409708 1.493075 0.406571
v -1.409708 2.017426 0.406570
v -1.409708 -0.410077 0.633786
v -1.409708 2.017426 -0.633786
v -1.409708 1.493075 -0.633785
v -1.409708 1.493075 -0.406571
v -1.409708 2.017426 -0.406570
v -1.409708 -0.410077 -0.633786
v -1.409708 -0.934429 -0.633785
v -1.409708 -0.934429 -0.406571
v -1.409709 -0.410078 -0.406569
v -1.409708 -0.934429 0.633785
v -1.409708 -0.934429 0.406571
v -1.409709 -0.410078 0.406569
v 1.941905 -1.342166 0.189388
v 1.941905 -1.243477 0.116664
v 1.941905 -1.205264 0.047321
v 1.941905 -1.342166 -0.189388
v 1.941905 -1.243477 -0.116664
v 1.941905 -1.204083 -0.044244
v -1.597104 1.076957 0.192070
v -1.597104 1.156547 0.142731
v -1.597104 1.198157 0.095679
v -1.597104 1.227512 0.027917
v -1.597106 -1.596660 0.230892
v -1.597106 -1.357499 0.194245
v -1.597106 -1.265812 0.140156
v -1.597106 -1.200831 0.039942
v 1.941903 0.829229 0.228612
v -1.597108 0.829761 -0.230691
v -1.597104 1.076957 -0.192070
v -1.597104 1.179944 -0.124149
v -1.597105 1.226574 -0.030361
v 1.941903 1.086298 0.189252
v 1.941922 1.180805 0.119218
v 1.941906 1.222012 0.049036
v 1.941905 1.493075 0.633785
v 1.941905 2.017426 0.633786
v 1.941905 2.017426 0.406570
v 1.941906 0.949260 0.216518
v -1.597106 -1.357499 -0.194245
v -1.597106 -1.265812 -0.140156
v -1.597106 -1.202184 -0.042602
v 1.941903 1.086298 -0.189252
v 1.941922 1.180805 -0.119218
v 1.941907 1.222953 -0.046893
v 1.941905 1.493075 -0.633785
v 1.941905 2.017426 -0.633786
v 1.941905 2.017426 -0.406570
v 1.941906 0.949260 -0.216518
v -1.682260 3.880958 2.243014
v 1.799512 -3.289753 -2.243014
v 0.185054 -1.938222 1.185792
v 1.941904 -1.889839 1.197545
v 1.941904 2.451785 -0.000000
v 1.941905 -1.596900 -0.231457
v -1.597107 0.829361 0.230728
v -1.597106 -1.597134 -0.230959
v 1.918059 2.514152 -0.000077
v 1.799512 3.880958 2.243014
v 1.918985 -3.001276 0.001856
v 1.918985 3.589388 0.000162
v 1.918062 -1.948332 0.000922
v 0.185054 -1.884899 -1.152741
v 0.185054 2.324530 1.152741
v 1.941905 -1.597517 0.231551
v 1.941903 0.829174 -0.228616
v 1.918318 2.813632 0.018389
v 1.918635 3.182852 0.000000
v 1.918712 -2.689056 -0.000000
v 1.918557 -2.513901 -0.190276
v 1.918620 -2.584775 -0.170499
v 1.918672 -2.643625 -0.124566
v 1.918704 -2.680501 -0.059121
v 1.918513 -2.461894 -0.186428
v 1.918427 2.942002 0.176922
v 1.918488 3.012560 0.184990
v 1.918548 3.081468 0.165763
v 1.918598 3.138684 0.121105
v 1.918627 3.174535 0.057479
v 1.918350 2.853275 -0.116174
v 1.918321 2.819664 -0.051325
v 1.918334 2.833260 0.085445
v 1.918374 2.878775 0.141466
v 1.918384 -2.315490 -0.052787
v 1.918413 -2.350061 -0.119492
v 1.918468 -2.411601 -0.170376
v 1.918437 -2.376370 0.146354
v 1.918396 -2.329477 0.087888
v 1.918378 -2.309286 0.018917
v 1.918428 2.942003 -0.176923
v 1.918387 2.895381 -0.153654
v 1.918626 3.174535 -0.057480
v 1.918594 3.138685 -0.121104
v 1.918546 3.081468 -0.165763
v 1.918487 3.012560 -0.184991
v 1.918703 -2.680502 0.059121
v 1.918672 -2.643626 0.124565
v 1.918619 -2.584777 0.170498
v 1.918558 -2.513899 0.190275
v 1.918494 -2.440825 0.181199
v 1.958106 -2.556618 -0.181980
v 1.958165 -2.621577 -0.146355
v 1.958205 -2.668469 -0.087889
v 1.958223 -2.688659 -0.018919
v 1.958044 -2.484045 -0.190278
v 1.957899 2.895390 0.153654
v 1.957945 2.948313 0.178766
v 1.957987 2.998059 0.184798
v 1.958036 3.054108 0.176921
v 1.958092 3.117260 0.142287
v 1.958128 3.162850 0.085445
v 1.958146 3.182480 0.018387
v 1.957866 2.857427 -0.121106
v 1.957834 2.821576 -0.057482
v 1.957829 2.813259 -0.000002
v 1.957836 2.821577 0.057479
v 1.957868 2.857426 0.121103
v 1.957890 -2.308889 -0.000002
v 1.957897 -2.317443 -0.059121
v 1.957929 -2.354317 -0.124564
v 1.957983 -2.415149 -0.171746
v 1.957983 -2.415150 0.171743
v 1.957930 -2.354318 0.124562
v 1.957897 -2.317443 0.059118
v 1.957946 2.948314 -0.178769
v 1.957899 2.895388 -0.153657
v 1.958139 3.176447 -0.051326
v 1.958110 3.142837 -0.116176
v 1.958063 3.087247 -0.162776
v 1.958005 3.019166 -0.184367
v 1.958217 -2.682455 0.052788
v 1.958187 -2.647882 0.119493
v 1.958136 -2.590707 0.167423
v 1.958089 -2.536052 0.186426
v 1.958044 -2.484045 0.190274
vn -0.5773 0.5773 -0.5773
vn 0.4818 -0.6254 -0.6138
vn -0.5773 -0.5773 -0.5773
vn 0.9078 0.2944 -0.2986
vn 0.5860 0.5770 -0.5689
vn 0.6042 -0.5542 -0.5724
vn -0.5773 0.5773 0.5773
vn -0.5773 -0.5773 0.5773
vn 0.9015 -0.3083 -0.3038
vn 0.9015 -0.3083 0.3038
vn 0.9659 0.1377 -0.2192
vn 0.4824 0.6253 -0.6134
vn 0.5773 0.5773 -0.5773
vn 0.9045 -0.3015 -0.3015
vn 0.9045 0.3015 -0.3015
vn 0.9045 0.3015 0.3015
vn 0.5773 0.5773 0.5773
vn 0.9149 -0.2894 0.2812
vn 0.9657 -0.1393 -0.2188
vn 0.5773 -0.5773 -0.5773
vn 0.9045 -0.3015 0.3015
vn 0.6811 0.7322 0.0000
vn 0.8936 0.3123 -0.3222
vn 0.8936 0.3123 0.3222
vn 0.9078 0.2944 0.2986
vn 0.6042 -0.5542 0.5724
vn 0.5860 0.5770 0.5689
vn 0.7659 -0.6216 -0.1644
vn 0.7584 -0.4903 -0.4294
vn 0.6472 -0.7329 -0.2097
vn 0.7696 -0.6153 -0.1707
vn 0.7546 -0.4881 -0.4385
vn 0.6737 -0.6235 -0.3966
vn 0.5699 -0.5769 -0.5852
vn 0.9809 -0.1946 0.0000
vn 0.4818 -0.6254 0.6138
vn 0.5773 -0.5773 0.5773
vn 0.9149 -0.2894 -0.2812
vn 0.5699 -0.5769 0.5852
vn 0.5515 0.5982 0.5814
vn 0.7179 -0.1030 -0.6884
vn 0.5700 0.5348 -0.6238
vn 0.6653 -0.2595 -0.6999
vn 0.7331 -0.6801 0.0000
vn 0.7509 -0.5839 0.3084
vn 0.7387 -0.4311 0.5180
vn 0.5699 0.5349 -0.6237
vn 0.6594 -0.5201 -0.5428
vn 0.6671 -0.2500 -0.7018
vn 0.6626 -0.2702 0.6984
vn 0.7179 -0.1030 0.6884
vn 0.7596 -0.2633 0.5946
vn 0.7552 -0.4884 0.4372
vn 0.6533 -0.5668 0.5018
vn 0.7717 -0.6147 0.1631
vn 0.9228 0.2491 0.2939
vn 0.6671 -0.2500 0.7018
vn 0.5698 0.5356 0.6232
vn 0.7684 -0.6211 0.1539
vn 0.6499 -0.7268 0.2220
vn 0.7591 -0.4909 0.4275
vn 0.7633 -0.2510 -0.5953
vn 0.5701 0.5342 0.6242
vn 0.9160 0.2691 0.2975
vn 0.9659 0.1377 0.2192
vn 0.9657 -0.1393 0.2188
vn 0.9160 0.2691 -0.2975
vn 0.7596 -0.2633 -0.5947
vn 0.6760 -0.4751 -0.5632
vn 0.4824 0.6253 0.6134
vn 0.5515 0.5982 -0.5814
vn 0.7499 0.3002 0.5895
vn 0.9812 0.1928 0.0000
vn 0.6626 -0.7347 -0.1457
vn 0.6606 -0.7295 0.1770
vn 0.6597 -0.5192 0.5433
vn 0.9231 0.2490 -0.2930
vn 0.7089 0.7053 0.0000
vn 0.7633 -0.2510 0.5953
vn 0.7485 -0.5260 -0.4038
vn 0.7481 -0.6374 -0.1844
vn 0.7505 0.2931 -0.5923
vn 0.7503 -0.3001 -0.5889
vn 0.7519 0.4204 0.5079
vn 0.7511 0.5841 0.3076
vn 0.7513 -0.4967 0.4345
vn 0.7473 -0.2993 0.5932
vn 0.6654 -0.6602 -0.3484
vn 0.6692 0.7019 -0.2437
vn 0.6733 -0.7360 -0.0707
vn 0.6659 0.6599 0.3480
vn 0.6645 -0.5739 0.4786
vn 0.6670 -0.7081 0.2316
vn 0.6698 -0.3698 0.6439
vn 0.7529 0.3160 -0.5773
vn 0.6669 0.5601 -0.4915
vn 0.6731 0.3312 -0.6612
vn 0.7481 -0.2029 0.6317
vn 0.6744 -0.3961 0.6231
vn 0.6705 -0.1929 0.7163
vn 0.6778 -0.1589 0.7178
vn 0.7445 -0.0542 0.6654
vn 0.7477 0.0467 0.6624
vn 0.6780 -0.0149 0.7349
vn 0.6653 0.0734 0.7429
vn 0.7421 0.2000 0.6398
vn 0.6615 0.3339 0.6715
vn 0.6672 0.2256 0.7099
vn 0.6653 0.5683 0.4841
vn 0.6660 0.4759 0.5744
vn 0.6663 0.7087 0.2315
vn 0.7443 0.6648 0.0638
vn 0.7507 0.5026 0.4287
vn 0.7501 0.0469 -0.6596
vn 0.6704 -0.1877 -0.7179
vn 0.7469 -0.1970 -0.6351
vn 0.7494 0.6292 0.2062
vn 0.6734 0.7359 0.0706
vn 0.6802 -0.4031 -0.6122
vn 0.7361 -0.3769 -0.5622
vn 0.6717 -0.5672 -0.4765
vn 0.7390 0.6736 -0.0102
vn 0.6709 0.7122 -0.2064
vn 0.7489 0.6260 -0.2175
vn 0.6694 -0.7018 -0.2434
vn 0.6676 0.5840 -0.4619
vn 0.7512 0.4970 -0.4344
vn 0.6772 -0.7357 -0.0111
vn 0.7442 -0.6648 0.0637
vn 0.7478 -0.0628 -0.6609
vn 0.6744 0.0610 -0.7358
vn 0.6663 -0.2212 -0.7121
vn 0.6678 0.3625 -0.6500
vn 0.6655 -0.4761 -0.5749
vn 0.6684 0.0894 -0.7384
vn 0.7512 -0.5023 -0.4282
vn 0.7393 -0.6733 0.0105
vn 0.6711 -0.7121 0.2062
vn 0.7490 -0.6257 0.2176
vn 0.7480 0.6376 -0.1843
vn 0.6768 0.7360 -0.0115
vn 0.7499 -0.6287 -0.2058
vn 0.6676 -0.5841 0.4616
vn 0.7521 0.5163 -0.4096
vn 0.7351 0.1415 -0.6630
usemtl None
s 1
f 3//1 85//2 2//3
f 4//4 86//5 18//6
f 84//7 2//3 1//8
f 97//9 15//10 86//5
f 10//11 85//2 8//12
f 33//13 71//14 70//15
f 29//15 30//16 46//17
f 7//18 11//19 10//11
f 36//20 45//13 46//17
f 72//21 71//14 32//20
f 88//22 14//23 98//24
f 6//25 16//26 17//27
f 14//23 17//27 16//26
f 50//28 49//29 61//30
f 69//31 68//32 56//33
f 14//23 20//34 97//9
f 94//35 9//36 85//2
f 82//14 37//37 81//21
f 29//15 46//17 45//13
f 24//15 40//20 82//14
f 32//20 34//17 35//37
f 37//37 39//13 38//17
f 4//4 18//6 5//38
f 41//37 43//13 42//17
f 36//20 46//17 47//37
f 98//24 87//39 21//40
f 25//21 42//17 26//16
f 73//41 90//42 54//43
f 26//16 43//13 27//15
f 92//44 116//45 117//46
f 28//14 43//13 44//20
f 28//14 41//37 25//21
f 38//17 80//16 81//21
f 22//16 35//37 34//17
f 80//16 39//13 24//15
f 58//47 60//48 59//49
f 64//50 83//51 77//52
f 15//10 97//9 87//39
f 78//53 65//54 77//52
f 79//55 65//54 78//53
f 89//56 74//57 91//58
f 53//59 76//60 52//61
f 49//29 60//48 61//30
f 30//16 48//62 49//29
f 48//62 59//49 60//48
f 61//30 91//58 76//60
f 63//63 100//64 83//51
f 3//1 8//12 85//2
f 5//38 12//65 13//66
f 88//22 98//24 21//40
f 10//11 11//19 85//2
f 98//24 18//6 86//5
f 23//14 29//15 45//13
f 7//18 6//25 11//19
f 31//21 23//14 36//20
f 31//21 47//37 46//17
f 6//25 7//18 16//26
f 90//42 73//41 62//67
f 68//32 67//68 55//69
f 14//23 97//9 17//27
f 97//9 86//5 17//27
f 84//7 9//36 93//70
f 14//23 19//71 20//34
f 5//38 13//66 4//4
f 12//65 9//36 13//66
f 82//14 40//20 37//37
f 31//21 36//20 47//37
f 24//15 39//13 40//20
f 23//14 45//13 36//20
f 37//37 40//20 39//13
f 41//37 44//20 43//13
f 71//14 33//13 32//20
f 31//21 46//17 30//16
f 25//21 41//37 42//17
f 98//24 86//5 15//10
f 26//16 42//17 43//13
f 111//72 95//73 5//38
f 28//14 27//15 43//13
f 28//14 44//20 41//37
f 81//21 37//37 38//17
f 72//21 32//20 35//37
f 80//16 38//17 39//13
f 83//51 64//50 63//63
f 67//68 54//43 55//69
f 54//43 57//74 56//33
f 55//69 54//43 56//33
f 60//48 58//47 61//30
f 64//50 65//54 66//75
f 91//58 74//57 75//76
f 90//42 66//75 54//43
f 75//76 76//60 91//58
f 69//31 88//22 22//16
f 88//22 21//40 71//14
f 100//64 90//42 62//67
f 99//77 87//39 89//56
f 96//78 86//5 4//4
f 77//52 65//54 64//50
f 79//55 66//75 65//54
f 89//56 51//79 74//57
f 51//79 75//76 74//57
f 51//79 52//61 75//76
f 52//61 76//60 75//76
f 21//40 87//39 23//14
f 99//77 59//49 48//62
f 70//15 34//17 33//13
f 52//61 51//79 27//15
f 25//21 19//71 80//16
f 68//32 55//69 56//33
f 69//31 56//33 57//74
f 24//15 78//53 77//52
f 48//62 60//48 49//29
f 98//24 16//26 18//6
f 91//58 99//77 89//56
f 1//8 85//2 9//36
f 81//21 88//22 82//14
f 20//34 87//39 97//9
f 89//56 87//39 20//34
f 54//43 67//68 73//41
f 70//15 22//16 34//17
f 92//44 18//6 16//26
f 14//23 16//26 98//24
f 17//27 96//78 6//25
f 99//77 58//47 59//49
f 94//35 13//66 9//36
f 114//80 115//81 92//44
f 12//65 93//70 9//36
f 95//73 128//82 7//18
f 98//24 15//10 87//39
f 22//16 72//21 35//37
f 93//70 8//12 3//1
f 10//11 93//70 95//73
f 32//20 33//13 34//17
f 84//7 1//8 9//36
f 3//1 84//7 93//70
f 92//44 5//38 18//6
f 105//83 94//35 11//19
f 121//84 122//85 96//78
f 131//86 132//87 94//35
f 137//88 153//89 138//90
f 145//91 151//92 150//93
f 131//86 167//94 132//87
f 120//95 154//96 155//97
f 109//98 140//99 141//100
f 132//87 168//101 133//102
f 110//103 141//100 142//104
f 133//102 169//105 134//106
f 134//106 156//107 121//84
f 110//103 142//104 143//108
f 121//84 157//109 122//85
f 111//72 143//108 144//110
f 122//85 158//111 123//112
f 112//113 144//110 145//91
f 129//114 159//115 124//116
f 113//117 145//91 146//118
f 124//116 160//119 125//120
f 125//120 147//121 114//80
f 102//122 161//123 126//124
f 114//80 148//125 115//81
f 126//124 162//126 127//127
f 115//81 149//128 101//129
f 104//130 139//131 135//132
f 101//129 149//128 150//93
f 127//127 163//133 128//82
f 105//83 135//132 136//134
f 116//45 150//93 151//92
f 128//82 164//135 129//114
f 106//136 136//134 137//88
f 117//46 151//92 140//99
f 103//137 165//138 130//139
f 118//140 152//141 153//89
f 107//142 137//88 138//90
f 130//139 166//143 131//86
f 119//144 153//89 154//96
f 108//145 155//97 139//131
f 92//44 16//26 7//18
f 94//35 85//2 11//19
f 88//22 19//71 14//23
f 61//30 53//59 50//28
f 57//74 79//55 69//31
f 117//46 5//38 92//44
f 92//44 101//129 116//45
f 57//74 54//43 66//75
f 99//77 91//58 58//47
f 57//74 66//75 79//55
f 30//16 29//15 99//77
f 53//59 31//21 30//16
f 50//28 53//59 30//16
f 30//16 99//77 48//62
f 49//29 50//28 30//16
f 61//30 76//60 53//59
f 61//30 58//47 91//58
f 12//65 95//73 93//70
f 3//1 2//3 84//7
f 12//65 5//38 95//73
f 102//122 95//73 113//117
f 5//38 117//46 109//98
f 113//117 95//73 112//113
f 5//38 109//98 110//103
f 112//113 95//73 111//72
f 5//38 110//103 111//72
f 90//42 63//63 66//75
f 22//16 70//15 73//41
f 70//15 62//67 73//41
f 88//22 72//21 22//16
f 69//31 79//55 88//22
f 68//32 69//31 22//16
f 22//16 73//41 67//68
f 67//68 68//32 22//16
f 71//14 72//21 88//22
f 21//40 70//15 71//14
f 53//59 100//64 62//67
f 70//15 21//40 23//14
f 53//59 62//67 31//21
f 23//14 31//21 62//67
f 87//39 99//77 29//15
f 23//14 62//67 70//15
f 87//39 29//15 23//14
f 28//14 53//59 27//15
f 89//56 26//16 27//15
f 27//15 53//59 52//61
f 51//79 89//56 27//15
f 53//59 28//14 100//64
f 26//16 89//56 20//34
f 100//64 28//14 25//21
f 25//21 26//16 20//34
f 20//34 19//71 25//21
f 80//16 100//64 25//21
f 63//63 64//50 66//75
f 100//64 80//16 83//51
f 24//15 82//14 88//22
f 88//22 79//55 24//15
f 83//51 80//16 24//15
f 79//55 78//53 24//15
f 77//52 83//51 24//15
f 63//63 90//42 100//64
f 1//8 2//3 85//2
f 81//21 80//16 19//71
f 19//71 88//22 81//21
f 17//27 86//5 96//78
f 92//44 7//18 125//120
f 92//44 125//120 114//80
f 115//81 101//129 92//44
f 10//11 95//73 7//18
f 95//73 102//122 126//124
f 125//120 7//18 124//116
f 95//73 126//124 127//127
f 124//116 7//18 129//114
f 95//73 127//127 128//82
f 129//114 7//18 128//82
f 10//11 8//12 93//70
f 11//19 120//95 108//145
f 11//19 108//145 104//130
f 103//137 94//35 107//142
f 11//19 104//130 105//83
f 107//142 94//35 106//136
f 106//136 94//35 105//83
f 96//78 123//112 118//140
f 11//19 6//25 120//95
f 6//25 96//78 120//95
f 96//78 118//140 119//144
f 119//144 120//95 96//78
f 13//66 134//106 4//4
f 96//78 4//4 121//84
f 122//85 123//112 96//78
f 4//4 134//106 121//84
f 94//35 103//137 130//139
f 133//102 134//106 13//66
f 13//66 94//35 132//87
f 94//35 130//139 131//86
f 132//87 133//102 13//66
f 169//105 168//101 156//107
f 155//97 154//96 136//134
f 154//96 153//89 137//88
f 153//89 152//141 138//90
f 156//107 168//101 167//94
f 167//94 166//143 156//107
f 165//138 138//90 158//111
f 137//88 136//134 154//96
f 135//132 139//131 155//97
f 158//111 157//109 165//138
f 166//143 165//138 157//109
f 136//134 135//132 155//97
f 157//109 156//107 166//143
f 138//90 152//141 158//111
f 147//121 160//119 162//126
f 164//135 163//133 159//115
f 163//133 162//126 160//119
f 162//126 161//123 148//125
f 161//123 146//118 149//128
f 146//118 145//91 150//93
f 145//91 144//110 151//92
f 144//110 143//108 140//99
f 143//108 142//104 141//100
f 149//128 148//125 161//123
f 148//125 147//121 162//126
f 140//99 151//92 144//110
f 150//93 149//128 146//118
f 163//133 160//119 159//115
f 141//100 140//99 143//108
f 104//130 108//145 139//131
f 131//86 166//143 167//94
f 120//95 119//144 154//96
f 109//98 117//46 140//99
f 132//87 167//94 168//101
f 133//102 168//101 169//105
f 110//103 109//98 141//100
f 134//106 169//105 156//107
f 121//84 156//107 157//109
f 111//72 110//103 143//108
f 122//85 157//109 158//111
f 112//113 111//72 144//110
f 123//112 158//111 152//141
f 113//117 112//113 145//91
f 129//114 164//135 159//115
f 102//122 113//117 146//118
f 124//116 159//115 160//119
f 125//120 160//119 147//121
f 102//122 146//118 161//123
f 114//80 147//121 148//125
f 126//124 161//123 162//126
f 115//81 148//125 149//128
f 105//83 104//130 135//132
f 127//127 162//126 163//133
f 116//45 101//129 150//93
f 106//136 105//83 136//134
f 128//82 163//133 164//135
f 117//46 116//45 151//92
f 107//142 106//136 137//88
f 103//137 138//90 165//138
f 118//140 123//112 152//141
f 103//137 107//142 138//90
f 130//139 165//138 166//143
f 119//144 118//140 153//89
f 108//145 120//95 155//97
